<?xml version="1.0" encoding="UTF-8" standalone="no"?>
<svg
   xmlns:dc="http://purl.org/dc/elements/1.1/"
   xmlns:cc="http://creativecommons.org/ns#"
   xmlns:rdf="http://www.w3.org/1999/02/22-rdf-syntax-ns#"
   xmlns:svg="http://www.w3.org/2000/svg"
   xmlns="http://www.w3.org/2000/svg"
   xmlns:sodipodi="http://sodipodi.sourceforge.net/DTD/sodipodi-0.dtd"
   xmlns:inkscape="http://www.inkscape.org/namespaces/inkscape"
   version="1.1"
   id="svg2"
   xml:space="preserve"
   width="341.33334"
   height="341.33334"
   viewBox="0 0 341.33334 341.33334"
   sodipodi:docname="faceholder.pdf"><metadata
     id="metadata8"><rdf:RDF><cc:Work
         rdf:about=""><dc:format>image/svg+xml</dc:format><dc:type
           rdf:resource="http://purl.org/dc/dcmitype/StillImage" /></cc:Work></rdf:RDF></metadata><defs
     id="defs6"><linearGradient
       x1="0"
       y1="0"
       x2="1"
       y2="0"
       gradientUnits="userSpaceOnUse"
       gradientTransform="matrix(0,-256,-256,0,128,256)"
       spreadMethod="pad"
       id="linearGradient28"><stop
         style="stop-opacity:1;stop-color:#34778c"
         offset="0"
         id="stop24" /><stop
         style="stop-opacity:1;stop-color:#365d6d"
         offset="1"
         id="stop26" /></linearGradient><clipPath
       clipPathUnits="userSpaceOnUse"
       id="clipPath38"><path
         d="M 10.662,128 C 10.662,63.196 63.196,10.662 128,10.662 v 0 c 64.803,0 117.338,52.534 117.338,117.338 v 0 c 0,64.803 -52.535,117.337 -117.338,117.337 v 0 C 63.196,245.337 10.662,192.803 10.662,128"
         id="path36" /></clipPath></defs><sodipodi:namedview
     pagecolor="#ffffff"
     bordercolor="#666666"
     borderopacity="1"
     objecttolerance="10"
     gridtolerance="10"
     guidetolerance="10"
     inkscape:pageopacity="0"
     inkscape:pageshadow="2"
     inkscape:window-width="640"
     inkscape:window-height="480"
     id="namedview4" /><g
     id="g10"
     inkscape:groupmode="layer"
     inkscape:label="faceholder"
     transform="matrix(1.3333333,0,0,-1.3333333,0,341.33333)"><g
       id="g12"><g
         id="g14"><g
           id="g20"><g
             id="g22"><path
               d="M 128,256 C 57.307,256 0,198.692 0,128 v 0 C 0,57.307 57.307,0 128,0 v 0 c 70.692,0 128,57.307 128,128 v 0 c 0,70.692 -57.308,128 -128,128 z"
               style="fill:url(#linearGradient28);stroke:none"
               id="path30" /></g></g></g></g><g
       id="g32"><g
         id="g34"
         clip-path="url(#clipPath38)"><g
           id="g40"
           transform="translate(232.5107,1.9873)"><path
             d="m 0,0 c 0,-55.516 -46.791,-100.521 -104.511,-100.521 -57.719,0 -104.51,45.005 -104.51,100.521 0,55.517 46.791,100.521 104.51,100.521 C -46.791,100.521 0,55.517 0,0"
             style="fill:#ffffff;fill-opacity:1;fill-rule:nonzero;stroke:none"
             id="path42" /></g><g
           id="g44"
           transform="translate(174.1533,174.0767)"><path
             d="m 0,0 c 0,-26.962 -20.663,-48.82 -46.153,-48.82 -25.491,0 -46.154,21.858 -46.154,48.82 0,26.963 20.663,48.82 46.154,48.82 C -20.663,48.82 0,26.963 0,0"
             style="fill:#ffffff;fill-opacity:1;fill-rule:nonzero;stroke:none"
             id="path46" /></g></g></g></g></svg>
