<?xml version="1.0" encoding="UTF-8" standalone="no"?>
<svg
   xmlns:dc="http://purl.org/dc/elements/1.1/"
   xmlns:cc="http://creativecommons.org/ns#"
   xmlns:rdf="http://www.w3.org/1999/02/22-rdf-syntax-ns#"
   xmlns:svg="http://www.w3.org/2000/svg"
   xmlns="http://www.w3.org/2000/svg"
   xmlns:sodipodi="http://sodipodi.sourceforge.net/DTD/sodipodi-0.dtd"
   xmlns:inkscape="http://www.inkscape.org/namespaces/inkscape"
   version="1.1"
   id="svg2"
   xml:space="preserve"
   width="682.66669"
   height="682.66669"
   viewBox="0 0 682.66669 682.66669"
   sodipodi:docname="systray-idle.pdf"><metadata
     id="metadata8"><rdf:RDF><cc:Work
         rdf:about=""><dc:format>image/svg+xml</dc:format><dc:type
           rdf:resource="http://purl.org/dc/dcmitype/StillImage" /></cc:Work></rdf:RDF></metadata><defs
     id="defs6"><clipPath
       clipPathUnits="userSpaceOnUse"
       id="clipPath18"><path
         d="M 0,512 H 512 V 0 H 0 Z"
         id="path16" /></clipPath></defs><sodipodi:namedview
     pagecolor="#ffffff"
     bordercolor="#666666"
     borderopacity="1"
     objecttolerance="10"
     gridtolerance="10"
     guidetolerance="10"
     inkscape:pageopacity="0"
     inkscape:pageshadow="2"
     inkscape:window-width="640"
     inkscape:window-height="480"
     id="namedview4" /><g
     id="g10"
     inkscape:groupmode="layer"
     inkscape:label="systray-idle"
     transform="matrix(1.3333333,0,0,-1.3333333,0,682.66667)"><g
       id="g12"><g
         id="g14"
         clip-path="url(#clipPath18)"><g
           id="g20"
           transform="translate(256,453.7002)"><path
             d="m 0,0 c -52.8,0 -102.4,-20.6 -139.8,-57.9 -77.1,-77.1 -77.1,-202.5 0,-279.6 37.3,-37.3 87,-57.9 139.8,-57.9 52.8,0 102.4,20.6 139.8,57.9 77.1,77.1 77.1,202.5 0,279.6 C 102.4,-20.6 52.8,0 0,0 m 0,-440.4 c -64.8,0 -125.8,25.2 -171.6,71.1 -45.8,45.8 -71.1,106.8 -71.1,171.6 0,64.8 25.3,125.8 71.1,171.6 C -125.8,19.8 -64.8,45 0,45 c 64.8,0 125.8,-25.2 171.6,-71.1 45.8,-45.8 71.1,-106.8 71.1,-171.6 0,-64.8 -25.2,-125.8 -71.1,-171.6 C 125.8,-415.2 64.8,-440.4 0,-440.4"
             style="fill:#000000;fill-opacity:1;fill-rule:nonzero;stroke:none"
             id="path22" /></g><g
           id="g24"
           transform="translate(403.2002,287.2002)"><path
             d="m 0,0 z m -301.3,-106.601 c -2.7,0 -5.5,0.601 -8.1,2 -8.6,4.5 -11.9,15 -7.4,23.601 26.4,50.6 73.1,100.7 108,130.7 17.1,14.7 41.6,33.2 60.7,38.1 21.7,5.4 55.8,-4.6 101.499,-29.8 C -16.5,41.4 18.899,17.4 28.2,3.8 c 7.4,-10.9 3.199,-19.7 1.1,-22.9 -8.401,-12.8 -28.6,-17.3 -43.8,-16.1 -1.5,0.099 -3.2,0.2 -5,0.4 -21.5,1.5 -61.5,4.4 -107,24.9 -8.8,4 -12.7,14.3 -8.7,23.2 4,8.8 14.3,12.7 23.2,8.7 37.7,-17 70.7,-20.1 91.7,-21.7 -11.1,8 -26.301,17.8 -43.801,27.4 -54.599,30 -73.299,26.6 -75.199,26.1 -7.3,-1.9 -23.4,-10.9 -46.5,-30.7 -30.9,-26.6 -75.6,-74.1 -99.8,-120.3 -3.3,-6 -9.4,-9.401 -15.7,-9.401"
             style="fill:#000000;fill-opacity:1;fill-rule:nonzero;stroke:none"
             id="path26" /></g><g
           id="g28"
           transform="translate(330.2002,242.2002)"><path
             d="m 0,0 z m -1.8,-35.2 c -3.4,0 -6.6,0.3 -9.5,0.7 -19.4,2.6 -44.5,8.899 -76.7,19.2 -9.2,2.9 -14.3,12.8 -11.4,22 2.9,9.2 12.8,14.3 22,11.4 C -47.2,8.5 -24,2.6 -6.7,0.3 c 4.2,-0.6 5.8,-0.401 6.3,-0.3 5,2.899 13.2,12.399 19.6,22.8 5.1,8.2 15.8,10.8 24.1,5.8 8.2,-5.1 10.8,-15.8 5.8,-24.1 -4.9,-8 -17.9,-27.4 -33.3,-35.601 -0.1,0 -0.1,-0.099 -0.2,-0.099 -5.6,-3 -11.701,-4 -17.4,-4"
             style="fill:#000000;fill-opacity:1;fill-rule:nonzero;stroke:none"
             id="path30" /></g><g
           id="g32"
           transform="translate(266.5,171.5996)"><path
             d="m 0,0 c -2.4,0 -4.8,0.101 -7.4,0.2 -18.3,1.2 -40.9,6.5 -60.5,14.2 -9,3.5 -13.4,13.701 -9.9,22.701 3.5,9 13.7,13.399 22.7,9.899 16.5,-6.399 35.1,-10.899 50,-11.8 7.5,-0.5 11.8,0.101 14,0.601 3,1.8 12.4,9.399 26.4,24.599 6.6,7.1 17.6,7.5 24.7,1 7.1,-6.599 7.5,-17.599 1,-24.7 C 42.6,16.7 28.6,5.2 19.6,2.5 H 19.5 C 13.9,0.801 7.5,0 0,0"
             style="fill:#000000;fill-opacity:1;fill-rule:nonzero;stroke:none"
             id="path34" /></g></g></g></g></svg>
