<?xml version="1.0" encoding="UTF-8" standalone="no"?>
<svg
   xmlns:dc="http://purl.org/dc/elements/1.1/"
   xmlns:cc="http://creativecommons.org/ns#"
   xmlns:rdf="http://www.w3.org/1999/02/22-rdf-syntax-ns#"
   xmlns:svg="http://www.w3.org/2000/svg"
   xmlns="http://www.w3.org/2000/svg"
   xmlns:sodipodi="http://sodipodi.sourceforge.net/DTD/sodipodi-0.dtd"
   xmlns:inkscape="http://www.inkscape.org/namespaces/inkscape"
   version="1.1"
   id="svg2"
   xml:space="preserve"
   width="682.66669"
   height="682.66669"
   viewBox="0 0 682.66669 682.66669"
   sodipodi:docname="systray-syncing.pdf"><metadata
     id="metadata8"><rdf:RDF><cc:Work
         rdf:about=""><dc:format>image/svg+xml</dc:format><dc:type
           rdf:resource="http://purl.org/dc/dcmitype/StillImage" /></cc:Work></rdf:RDF></metadata><defs
     id="defs6"><clipPath
       clipPathUnits="userSpaceOnUse"
       id="clipPath18"><path
         d="M 0,512 H 512 V 0 H 0 Z"
         id="path16" /></clipPath></defs><sodipodi:namedview
     pagecolor="#ffffff"
     bordercolor="#666666"
     borderopacity="1"
     objecttolerance="10"
     gridtolerance="10"
     guidetolerance="10"
     inkscape:pageopacity="0"
     inkscape:pageshadow="2"
     inkscape:window-width="640"
     inkscape:window-height="480"
     id="namedview4" /><g
     id="g10"
     inkscape:groupmode="layer"
     inkscape:label="systray-syncing"
     transform="matrix(1.3333333,0,0,-1.3333333,0,682.66667)"><g
       id="g12"><g
         id="g14"
         clip-path="url(#clipPath18)"><g
           id="g20"
           transform="translate(138.2998,217)"><path
             d="m 0,0 -29,1.4 c 3.4,68 27.1,117.5 70.6,147 l 1.9,1.3 16.2,4.7 8,-27.9 L 56,123.1 C 39.3,111.3 26.1,95.4 16.9,76 7.2,55.3 1.5,29.7 0,0"
             style="fill:#000000;fill-opacity:1;fill-rule:nonzero;stroke:none"
             id="path22" /></g><g
           id="g24"
           transform="translate(202.8999,302.2002)"><path
             d="M 0,0 87.8,80.9 -29.6,102.6 Z"
             style="fill:#000000;fill-opacity:1;fill-rule:nonzero;stroke:none"
             id="path26" /></g><g
           id="g28"
           transform="translate(311.0996,139.0996)"><path
             d="M 0,0 -8,27.9 3.7,31.301 C 20.4,43.101 33.601,59 42.801,78.4 c 9.8,20.8 15.599,46.4 17,76.1 l 29,-1.399 C 85.4,85.101 61.7,35.601 18.2,6.101 l -1.899,-1.3 z"
             style="fill:#000000;fill-opacity:1;fill-rule:nonzero;stroke:none"
             id="path30" /></g><g
           id="g32"
           transform="translate(306.2002,208.4004)"><path
             d="M 0,0 -87.8,-80.9 29.6,-102.601 Z"
             style="fill:#000000;fill-opacity:1;fill-rule:nonzero;stroke:none"
             id="path34" /></g><g
           id="g36"
           transform="translate(256,453.7002)"><path
             d="m 0,0 c -52.8,0 -102.4,-20.6 -139.8,-57.9 -77.1,-77.1 -77.1,-202.5 0,-279.6 37.3,-37.3 87,-57.9 139.8,-57.9 52.8,0 102.4,20.6 139.8,57.9 77.1,77.1 77.1,202.5 0,279.6 C 102.4,-20.6 52.8,0 0,0 m 0,-440.4 c -64.8,0 -125.8,25.2 -171.6,71.1 -45.8,45.8 -71.1,106.8 -71.1,171.6 0,64.8 25.3,125.8 71.1,171.6 C -125.8,19.8 -64.8,45 0,45 c 64.8,0 125.8,-25.2 171.6,-71.1 45.8,-45.8 71.1,-106.8 71.1,-171.6 0,-64.8 -25.2,-125.8 -71.1,-171.6 C 125.8,-415.2 64.8,-440.4 0,-440.4"
             style="fill:#000000;fill-opacity:1;fill-rule:nonzero;stroke:none"
             id="path38" /></g></g></g></g></svg>
