<?xml version="1.0" encoding="UTF-8" standalone="no"?>
<svg
   xmlns:dc="http://purl.org/dc/elements/1.1/"
   xmlns:cc="http://creativecommons.org/ns#"
   xmlns:rdf="http://www.w3.org/1999/02/22-rdf-syntax-ns#"
   xmlns:svg="http://www.w3.org/2000/svg"
   xmlns="http://www.w3.org/2000/svg"
   xmlns:sodipodi="http://sodipodi.sourceforge.net/DTD/sodipodi-0.dtd"
   xmlns:inkscape="http://www.inkscape.org/namespaces/inkscape"
   version="1.1"
   id="svg2"
   xml:space="preserve"
   width="682.66669"
   height="682.66669"
   viewBox="0 0 682.66669 682.66669"
   sodipodi:docname="systray-info.pdf"><metadata
     id="metadata8"><rdf:RDF><cc:Work
         rdf:about=""><dc:format>image/svg+xml</dc:format><dc:type
           rdf:resource="http://purl.org/dc/dcmitype/StillImage" /></cc:Work></rdf:RDF></metadata><defs
     id="defs6"><clipPath
       clipPathUnits="userSpaceOnUse"
       id="clipPath18"><path
         d="M 0,512 H 512 V 0 H 0 Z"
         id="path16" /></clipPath></defs><sodipodi:namedview
     pagecolor="#ffffff"
     bordercolor="#666666"
     borderopacity="1"
     objecttolerance="10"
     gridtolerance="10"
     guidetolerance="10"
     inkscape:pageopacity="0"
     inkscape:pageshadow="2"
     inkscape:window-width="640"
     inkscape:window-height="480"
     id="namedview4" /><g
     id="g10"
     inkscape:groupmode="layer"
     inkscape:label="systray-info"
     transform="matrix(1.3333333,0,0,-1.3333333,0,682.66667)"><g
       id="g12"><g
         id="g14"
         clip-path="url(#clipPath18)"><g
           id="g20"
           transform="translate(276.7002,277.2998)"><path
             d="M 0,0 C 1.7,-0.8 3.399,-1.5 5.1,-2.2 13.2,7.3 22.5,15.2 32.899,21.4 34,22.1 35.1,22.7 36.3,23.3 29.3,25.7 22,28.5 14.5,31.8 5.6,35.9 -4.7,32 -8.7,23.2 -12.7,14.3 -8.8,4 0,0"
             style="fill:#000000;fill-opacity:1;fill-rule:nonzero;stroke:none"
             id="path22" /></g><g
           id="g24"
           transform="translate(263.9004,341)"><path
             d="m 0,0 c 1.899,0.5 20.6,3.9 75.199,-26.1 1.7,-0.9 3.301,-1.8 4.901,-2.7 10.4,2.3 21.5,3.5 33.299,3.5 10.601,0 20.701,-1 30.201,-2.9 -14.8,11 -33.701,22.9 -50.901,32.4 C 47,29.4 12.899,39.4 -8.8,34 -27.9,29.1 -52.4,10.6 -69.5,-4.1 c -34.9,-30 -81.601,-80.1 -108,-130.7 -4.5,-8.6 -1.2,-19.1 7.399,-23.6 2.601,-1.4 5.401,-2 8.101,-2 6.3,0 12.399,3.4 15.7,9.4 24.199,46.2 68.9,93.7 99.8,120.3 C -23.4,-10.9 -7.3,-1.9 0,0"
             style="fill:#000000;fill-opacity:1;fill-rule:nonzero;stroke:none"
             id="path26" /></g><g
           id="g28"
           transform="translate(374.7002,15.9004)"><path
             d="m 0,0 c -29.601,0 -42,21.199 -43.7,41.1 -0.2,2.5 0.599,5 2.3,6.9 1.7,1.899 3.9,1.5 6.4,1.5 l 70.1,-0.101 c 2.5,0 4.5,0.401 6.2,-1.399 1.7,-1.9 2.599,-4.4 2.3,-6.9 C 42,21.199 29.6,0 0,0"
             style="fill:#000000;fill-opacity:1;fill-rule:nonzero;stroke:none"
             id="path30" /></g><g
           id="g32"
           transform="translate(243,91)"><path
             d="m 0,0 c 0,0.7 0.5,1.2 1.2,1.3 15.1,1.1 19.5,24.1 25.3,61.1 8.7,55.8 20.7,132.3 107.8,132.3 86.5,0 98.1,-75.7 106.6,-131 5.8,-37.6 10.3,-61.1 26.4,-62.3 0.7,-0.1 1.2,-0.6 1.2,-1.4 v -11.3 c 0,-0.8 -0.6,-1.4 -1.4,-1.4 H 1.3 c -0.7,0 -1.3,0.6 -1.3,1.3 z"
             style="fill:#000000;fill-opacity:1;fill-rule:nonzero;stroke:none"
             id="path34" /></g><g
           id="g36"
           transform="translate(301.9004,48.2998)"><path
             d="M 0,0 H -57.601 C -68.3,0 -77.8,5.4 -83.4,13.601 c -38.5,7.399 -74,26 -102.3,54.299 -77.1,77.1 -77.1,202.5 0,279.6 37.4,37.3 87,57.9 139.8,57.9 52.799,0 102.4,-20.6 139.799,-57.9 28.5,-28.5 46.401,-63.5 53.8,-100.2 14.601,-9.8 26.7,-23.1 36.2,-39.7 4.601,-7.999 8.401,-16.499 11.5,-25.1 0.901,8.3 1.3,16.7 1.3,25.2 0,64.8 -25.3,125.8 -71.099,171.6 -45.701,45.9 -106.701,71.1 -171.5,71.1 -64.8,0 -125.8,-25.2 -171.6,-71.1 -45.8,-45.8 -71.101,-106.8 -71.101,-171.6 0,-64.8 25.301,-125.8 71.101,-171.599 C -171.7,-9.8 -110.7,-35 -45.9,-35 c 19.099,0 37.9,2.2 56.099,6.5 C 5.1,-20 1.6,-10.3 0,0"
             style="fill:#000000;fill-opacity:1;fill-rule:nonzero;stroke:none"
             id="path38" /></g><g
           id="g40"
           transform="translate(242.2002,226.9004)"><path
             d="m 0,0 c 4,-1.301 7.9,-2.5 11.7,-3.7 3.6,11 8.199,21.899 14.1,32.2 0,0.1 0.099,0.2 0.099,0.2 C 21,30.2 15.8,31.7 10.5,33.5 1.4,36.3 -8.5,31.2 -11.4,22 -14.3,12.8 -9.2,2.899 0,0"
             style="fill:#000000;fill-opacity:1;fill-rule:nonzero;stroke:none"
             id="path42" /></g><g
           id="g44"
           transform="translate(249.5,208.0996)"><path
             d="m 0,0 c -12.3,1.9 -25.7,5.7 -38.1,10.5 -9,3.5 -19.2,-0.899 -22.7,-9.899 -3.5,-9 0.9,-19.201 9.9,-22.701 13.9,-5.5 29.4,-9.799 43.8,-12.2 1.8,11 4,22.601 7.1,34.3"
             style="fill:#000000;fill-opacity:1;fill-rule:nonzero;stroke:none"
             id="path46" /></g></g></g></g></svg>
