<?xml version="1.0" encoding="UTF-8" standalone="no"?>
<svg
   xmlns:dc="http://purl.org/dc/elements/1.1/"
   xmlns:cc="http://creativecommons.org/ns#"
   xmlns:rdf="http://www.w3.org/1999/02/22-rdf-syntax-ns#"
   xmlns:svg="http://www.w3.org/2000/svg"
   xmlns="http://www.w3.org/2000/svg"
   xmlns:sodipodi="http://sodipodi.sourceforge.net/DTD/sodipodi-0.dtd"
   xmlns:inkscape="http://www.inkscape.org/namespaces/inkscape"
   version="1.1"
   id="svg2"
   xml:space="preserve"
   width="682.66669"
   height="682.66669"
   viewBox="0 0 682.66669 682.66669"
   sodipodi:docname="systray-paused.pdf"><metadata
     id="metadata8"><rdf:RDF><cc:Work
         rdf:about=""><dc:format>image/svg+xml</dc:format><dc:type
           rdf:resource="http://purl.org/dc/dcmitype/StillImage" /></cc:Work></rdf:RDF></metadata><defs
     id="defs6"><clipPath
       clipPathUnits="userSpaceOnUse"
       id="clipPath18"><path
         d="M 0,512 H 512 V 0 H 0 Z"
         id="path16" /></clipPath><clipPath
       clipPathUnits="userSpaceOnUse"
       id="clipPath34"><path
         d="M 13.3,498.7 H 498.7 V 13.3 H 13.3 Z"
         id="path32" /></clipPath></defs><sodipodi:namedview
     pagecolor="#ffffff"
     bordercolor="#666666"
     borderopacity="1"
     objecttolerance="10"
     gridtolerance="10"
     guidetolerance="10"
     inkscape:pageopacity="0"
     inkscape:pageshadow="2"
     inkscape:window-width="640"
     inkscape:window-height="480"
     id="namedview4" /><g
     id="g10"
     inkscape:groupmode="layer"
     inkscape:label="systray-paused"
     transform="matrix(1.3333333,0,0,-1.3333333,0,682.66667)"><g
       id="g12"><g
         id="g14"
         clip-path="url(#clipPath18)"><g
           id="g20"
           transform="translate(210.7002,103.7002)"><path
             d="m 0,0 c -12.4,0 -22.5,10.1 -22.5,22.5 v 259.6 c 0,12.4 10.1,22.5 22.5,22.5 12.4,0 22.5,-10.1 22.5,-22.5 V 22.5 C 22.5,10.1 12.4,0 0,0"
             style="fill:#000000;fill-opacity:1;fill-rule:nonzero;stroke:none"
             id="path22" /></g><g
           id="g24"
           transform="translate(301.2998,103.7002)"><path
             d="m 0,0 c -12.399,0 -22.5,10.1 -22.5,22.5 v 259.6 c 0,12.4 10.101,22.5 22.5,22.5 12.4,0 22.5,-10.1 22.5,-22.5 V 22.5 C 22.5,10.1 12.4,0 0,0"
             style="fill:#000000;fill-opacity:1;fill-rule:nonzero;stroke:none"
             id="path26" /></g><g
           id="g28"><g
             id="g30" /><g
             id="g42"><g
               clip-path="url(#clipPath34)"
               opacity="0.5"
               id="g40"><g
                 transform="translate(256,453.7002)"
                 id="g38"><path
                   d="m 0,0 c -109,0 -197.7,-88.7 -197.7,-197.7 0,-109 88.7,-197.7 197.7,-197.7 109,0 197.7,88.7 197.7,197.7 C 197.7,-88.7 109,0 0,0 m 0,-440.4 c -64.8,0 -125.8,25.2 -171.6,71.1 -45.9,45.8 -71.1,106.8 -71.1,171.6 0,64.8 25.2,125.8 71.1,171.6 C -125.8,19.8 -64.8,45 0,45 c 64.8,0 125.8,-25.2 171.6,-71.1 45.8,-45.8 71.1,-106.8 71.1,-171.6 0,-64.8 -25.2,-125.8 -71.1,-171.6 C 125.7,-415.101 64.8,-440.4 0,-440.4"
                   style="fill:#000000;fill-opacity:1;fill-rule:nonzero;stroke:none"
                   id="path36" /></g></g></g></g></g></g></g></svg>
